# xmcd
#
# Track frame offsets:
#  150
#  5504
#  32556
#  48997
#  61875
#  89703
#  91958
#  115859
#  147319
#  163591
#  194410
#  219822
#  250066
#
# Disc length: 3564 seconds
#
# Revision: 0
# Processed by: cddbd v1.5.1PL0 Copyright (c) Steve Scherf et al.
# Submitted via: Collectorz.com Music Collector 6.9
#
DISCID=ab0dea0d
DTITLE=andrew hardin and tom russell - Live At The Pals, Winters, Ca (May 19th 2005) - Disc 1
DYEAR=2005
DGENRE=
TTITLE0=Intro
TTITLE1=The Boy Who Cried Wolf
TTITLE2=Ahmans Day
TTITLE3=Stealin' Electricity
TTITLE4=Sonoras Death Row
TTITLE5=Song Intro
TTITLE6=Next Thing Smokin'
TTITLE7=The Ballad Of Ira Hayes
TTITLE8=Tonight We Ride
TTITLE9=One Night In Dave Van Ronks Appartment
TTITLE10=Great Wine
TTITLE11=Mrs Guthrie
TTITLE12=When Sinatra Played Juarez
EXTD=
EXTT0=
EXTT1=
EXTT2=
EXTT3=
EXTT4=
EXTT5=
EXTT6=
EXTT7=
EXTT8=
EXTT9=
EXTT10=
EXTT11=
EXTT12=
PLAYORDER=
